<svg id="Layer_1" data-name="Layer 1" xmlns="http://www.w3.org/2000/svg" viewBox="0 0 234.39 185.22"><defs><style>.cls-1,.cls-2,.cls-4,.cls-8{fill:#191b21;}.cls-1,.cls-6{stroke:#000;}.cls-1,.cls-10,.cls-2,.cls-6{stroke-miterlimit:10;}.cls-1,.cls-10,.cls-2{stroke-width:0.2px;}.cls-10,.cls-2,.cls-7,.cls-8{stroke:#191b21;}.cls-12,.cls-3{fill:#c39862;}.cls-5{fill:#fff;}.cls-10,.cls-11,.cls-6,.cls-7,.cls-9{fill:none;}.cls-7,.cls-8{stroke-linecap:square;stroke-linejoin:round;stroke-width:0.25px;}.cls-11{font-size:12px;font-family:EngraversMT, Engravers MT;}.cls-12{font-size:28px;}.cls-12,.cls-14{font-family:CooperBlack, Cooper Black;}.cls-13,.cls-14{letter-spacing:0em;}.cls-14{font-size:43px;}.cls-15{letter-spacing:0em;}</style></defs><path class="cls-1" d="M140.65,154.54a16.75,16.75,0,0,1,9.39-6.41,30.08,30.08,0,0,1,4.91-.69,14.18,14.18,0,0,1,4.46.13c1.8-1.47,3.71-3.07,5.51-4.54" transform="translate(-15.34 -20.31)"/><path class="cls-2" d="M140.6,154.39a.59.59,0,0,0-.1.34c.81.25,2.12-.16,3-.2a26.45,26.45,0,0,1,3.21.05A27.32,27.32,0,0,1,161,160c.79.6,3,2,3.32,3s-1.39,2.82-2.13,3.46c0,0,3.71,2,4,2.15a25.62,25.62,0,0,1,13.12,21.52,26.62,26.62,0,0,1-.32,5.35c-.23,1.4-.42,3.73-1.38,4.84,5,0,10.07-.08,15.1-.08-2.93-5.48-2.55-12.41,0-18a31.57,31.57,0,0,1,9.27-11.4,55.92,55.92,0,0,1,7-4.69c2.3-1.3,5-3.19,7.63-3.68-.32.06-3.15-2.55-3.55-2.83a74.48,74.48,0,0,0-7.17-4.42c-1.3-.7-2.63-1.36-4-2-1.09-.49-2.66-1.5-3.85-1.42,2-1.43,4.45-2.1,6.42-3.6-.49.37-3.46-1-4-1.15-1.65-.53-3.3-1-5-1.54A99.23,99.23,0,0,0,185.43,143a48.87,48.87,0,0,0-20.54,0" transform="translate(-15.34 -20.31)"/><path class="cls-3" d="M162.22,154.16c-.17-.18-.5-.48-1.1-1a8.62,8.62,0,0,0-2.1-1.28,12,12,0,0,0-4.69-1h-.22a21.38,21.38,0,0,0-5.36.77c-2.7.69-3.73,1-4.13,1.12.38-.88,2.13-1.62,3.1-2l.38-.16a18.34,18.34,0,0,1,7.25-1.52c.34,0,.68,0,1,0,.89,0,1.78.18,2.64.29C161.76,149.78,162.19,152.65,162.22,154.16Z" transform="translate(-15.34 -20.31)"/><path class="cls-4" d="M155.35,149.18h0l1,0c.88,0,1.77.18,2.63.29,2.53.35,3,2.88,3.12,4.41-.2-.19-.49-.45-.92-.82l-.05,0a8.13,8.13,0,0,0-2.08-1.26,12.07,12.07,0,0,0-4.73-1h-.23a21.45,21.45,0,0,0-5.37.77c-2.24.57-3.34.87-3.89,1.05a7.5,7.5,0,0,1,2.92-1.76l.38-.16a18,18,0,0,1,7.21-1.52m0-.2a18.46,18.46,0,0,0-7.29,1.53c-.91.4-3.35,1.29-3.59,2.44,0-.07,4-1.1,4.31-1.18a21.3,21.3,0,0,1,5.32-.77h.23a11.81,11.81,0,0,1,4.65,1,8.6,8.6,0,0,1,2,1.23,8.83,8.83,0,0,1,1.31,1.27c0-2.35-.76-4.82-3.3-5.17-.88-.12-1.76-.24-2.65-.29l-1,0Z" transform="translate(-15.34 -20.31)"/><path class="cls-5" d="M170.37,152.54a1.3,1.3,0,0,1-1.15-.81,6,6,0,0,0-2.05-2.15,5.18,5.18,0,0,0-.82-.32c-.58-.19-1.55-.52-1.48-.8.12-.5,1.28-1.12,2-1.39a3.66,3.66,0,0,1,1.3-.22,5.63,5.63,0,0,1,.58,0,7.76,7.76,0,0,1,1.32.29c.65.2,1.31.43,2,.66a17.27,17.27,0,0,0,4.54,1.18,9.47,9.47,0,0,0-3.72,2.12A4.74,4.74,0,0,1,170.37,152.54Z" transform="translate(-15.34 -20.31)"/><path class="cls-5" d="M168.15,146.75v.2l.57,0a7.57,7.57,0,0,1,1.3.29c.65.19,1.31.43,2,.66a19.46,19.46,0,0,0,4.06,1.13,10.26,10.26,0,0,0-3.28,2l0,0a4.53,4.53,0,0,1-2.35,1.35,1.21,1.21,0,0,1-1.06-.76,6.11,6.11,0,0,0-2.08-2.18,5,5,0,0,0-.85-.33c-1-.33-1.44-.56-1.42-.68.11-.45,1.19-1,1.93-1.32a3.44,3.44,0,0,1,1.26-.22v-.2m0,0a3.67,3.67,0,0,0-1.34.23c-.53.2-1.9.84-2,1.46s1.9.95,2.35,1.23a5.89,5.89,0,0,1,2,2.11,1.4,1.4,0,0,0,1.24.86,4.81,4.81,0,0,0,2.53-1.43,8.52,8.52,0,0,1,4.84-2.31l-.65,0c-2.4,0-4.69-1.16-7-1.86a8.9,8.9,0,0,0-1.34-.29,5.68,5.68,0,0,0-.59,0Z" transform="translate(-15.34 -20.31)"/><path class="cls-3" d="M195.24,151.33a7.29,7.29,0,0,0-3.56-4,20.62,20.62,0,0,0-5.23-1.79c-.26-.07-.54-.12-.84-.17a7,7,0,0,1-1.71-.45c.32,0,1.23-.21,1.48-.21a13.87,13.87,0,0,1,1.77.33l1.11.27c2,.45,4,1,5.81,1.58.19.06.71.28,1.37.57a28.58,28.58,0,0,0,4,1.51,14,14,0,0,1-1.78,1A11,11,0,0,0,195.24,151.33Z" transform="translate(-15.34 -20.31)"/><path class="cls-4" d="M185.38,144.59l0,.2a12.57,12.57,0,0,1,1.73.33l.4.09.71.17c2,.46,3.94,1,5.8,1.58.19.06.73.3,1.36.57a35.2,35.2,0,0,0,3.76,1.47c-.51.31-1,.57-1.58.83a12,12,0,0,0-2.29,1.33,7.49,7.49,0,0,0-3.56-3.94,20.85,20.85,0,0,0-5.26-1.8,8.29,8.29,0,0,0-.84-.17,8.79,8.79,0,0,1-1.32-.3,10.79,10.79,0,0,1,1.07-.16v-.2m0,0a10.15,10.15,0,0,0-1.7.31,10.9,10.9,0,0,0,2.75.71,20.65,20.65,0,0,1,5.2,1.79,7.17,7.17,0,0,1,3.56,4.11c1.31-1.18,3.12-1.62,4.55-2.66l-.13,0c-.83,0-4.86-1.89-5.51-2.1-1.92-.61-3.86-1.13-5.82-1.58l-1.11-.27a13.46,13.46,0,0,0-1.75-.33Z" transform="translate(-15.34 -20.31)"/><path class="cls-3" d="M208.65,163.56a4.93,4.93,0,0,0-.55-2.52,6.91,6.91,0,0,0-2.31-2.14,14.8,14.8,0,0,0-2-1.07,11.62,11.62,0,0,1-2.39-1.32l-.61-.5c-.82-.7-1.83-1.57-2.49-1.57-.24,0-.54.11-.62.66,0-.06-.17-.34-.18-.47a.4.4,0,0,1,.28-.35.64.64,0,0,1,.2,0h0a1.66,1.66,0,0,1,.33,0,14.05,14.05,0,0,1,4,1.59l1.82,1c1.87,1,3.8,1.95,5.61,3.07.11.07.4.29.75.57a22.18,22.18,0,0,0,2,1.41A33.73,33.73,0,0,0,208.65,163.56Z" transform="translate(-15.34 -20.31)"/><path class="cls-4" d="M198.94,154.54A17.16,17.16,0,0,1,202.2,156l1.81.94c1.87,1,3.8,2,5.61,3.08.1.06.4.29.74.56.84.65,1.41,1.07,1.79,1.31a34.66,34.66,0,0,0-3.4,1.54,5.06,5.06,0,0,0-.56-2.41,7.09,7.09,0,0,0-2.34-2.17,14.05,14.05,0,0,0-2.07-1.08,11.18,11.18,0,0,1-2.37-1.31l-.61-.5a10.83,10.83,0,0,0-1.86-1.39m-1-.39h0a.59.59,0,0,0-.23,0,.48.48,0,0,0-.35.44c0,.18.24.54.34.54s0,0,0-.06c.06-.41.25-.57.52-.57.8,0,2.28,1.46,3,2.05,1.33,1,3.05,1.46,4.45,2.4A7,7,0,0,1,208,161.1a5,5,0,0,1,.53,2.63,34.62,34.62,0,0,1,4.12-1.86h0a24.56,24.56,0,0,1-2.93-2.06c-2.39-1.48-4.94-2.72-7.43-4a14.14,14.14,0,0,0-4-1.6,1.75,1.75,0,0,0-.33,0Z" transform="translate(-15.34 -20.31)"/><path class="cls-6" d="M193.43,155.56" transform="translate(-15.34 -20.31)"/><path class="cls-4" d="M114.8,147.53c-.66-.22-1.37-.54-2-.8l-16.12-7.12c-8-3.51-16.21-7.15-23.35-12.49a29.08,29.08,0,0,1-4.24-3.73,20.94,20.94,0,0,1-.89-27.13,29.37,29.37,0,0,0,3.47,11.87,54.84,54.84,0,0,0,7.06,9.52,37.19,37.19,0,0,0,3.48,3.69l.33.31c.55.52,1.23,1.17,1.71,1.17a.45.45,0,0,0,.33-.14,1.5,1.5,0,0,0,.2-1.1c-.16-2.52,1.88-4.17,3.89-5.46a1.37,1.37,0,0,1,.6-.23.36.36,0,0,1,.2.06.78.78,0,0,1,.28.36l2,3.73a104.72,104.72,0,0,0,7.85,12c1.09,1.48,2.22,2.92,3.32,4.31,2.75,3.47,5.6,7.07,9.37,9.53l.69.44A17.28,17.28,0,0,1,114.8,147.53Z" transform="translate(-15.34 -20.31)"/><path d="M68.15,96.53a29.52,29.52,0,0,0,3.46,11.65,56.09,56.09,0,0,0,7.07,9.54,38.69,38.69,0,0,0,3.5,3.7l.32.3c.69.66,1.29,1.2,1.78,1.2a.53.53,0,0,0,.4-.17,1.55,1.55,0,0,0,.23-1.18c-.15-2.46,1.86-4.09,3.85-5.36a1.13,1.13,0,0,1,.54-.22.42.42,0,0,1,.15,0,.84.84,0,0,1,.24.32l2,3.73a106.43,106.43,0,0,0,7.86,12c1.08,1.46,2.22,2.91,3.33,4.31,2.75,3.48,5.6,7.08,9.38,9.56l.69.44c.42.26.84.52,1.24.81-.47-.18-1-.4-1.39-.59l-9.42-4.16-6.66-2.94c-8-3.51-16.2-7.15-23.33-12.48a30.77,30.77,0,0,1-4.23-3.71,20.84,20.84,0,0,1-1-26.8m.17-.53a21.47,21.47,0,0,0-4.74,13.91,21.2,21.2,0,0,0,5.47,13.55,30.19,30.19,0,0,0,4.25,3.74c7.11,5.32,15.28,8.93,23.37,12.5l6.66,2.94,9.42,4.16a18.29,18.29,0,0,0,2.45,1,18.31,18.31,0,0,0-2.8-2c-3.72-2.43-6.56-6-9.34-9.52-1.12-1.42-2.24-2.84-3.32-4.3a104.07,104.07,0,0,1-7.84-12l-2-3.73a.91.91,0,0,0-.32-.4.47.47,0,0,0-.25-.07,1.38,1.38,0,0,0-.65.25c-1.94,1.24-4.1,2.93-3.94,5.54.06.84-.13,1.14-.43,1.14-.55,0-1.49-1-2-1.45a39.1,39.1,0,0,1-3.48-3.68,56.43,56.43,0,0,1-7-9.51A29.17,29.17,0,0,1,68.32,96Z" transform="translate(-15.34 -20.31)"/><path class="cls-2" d="M168.66,200.71q-9.09-.26-18.18-.24a5.13,5.13,0,0,1-1.88-.08,9.43,9.43,0,0,1-1.6-1.32c-1.06-.85-2.14-1.69-3.23-2.5q-3.28-2.43-6.75-4.59a98.91,98.91,0,0,0-15.22-7.73c-10.7-4.3-22.58-6.69-33.73-3.8a80.56,80.56,0,0,1-8.69-12.38c-1.47-2.75-2.8-5.62-4.82-8q13.17,2.74,26.12,6.31c18.92,5.18,37.93,11.88,53.2,24.42,1.79,0,3.32.15,5.11.15a8,8,0,0,1,2.29.22v0c.35,0,.64.22,1,.18-.19-1.94-1.86-3.74-3.13-5.06-6.81-7.09-15.57-11.52-24.3-15.59a168.86,168.86,0,0,0-21-8.07c-7.06-2.22-14.22-4-21.44-5.64q-5.41-1.18-10.87-2.21l-5.45-1a30.9,30.9,0,0,0-4.9-.94h-.73a103.29,103.29,0,0,1-5.1-12,63,63,0,0,1-3.77-17.23l-.26.06c10.16,8.44,22.15,14.93,34.19,20.11,14.35,6.18,29,11.6,43.72,17,11.62,4.23,25.14,7.9,32.62,18.78a23.1,23.1,0,0,1,3.82,14.91l-.35,6.2a30.06,30.06,0,0,1-6.27,4,21.68,21.68,0,0,1,.07-3.94" transform="translate(-15.34 -20.31)"/><path class="cls-3" d="M76.93,126.58a27.62,27.62,0,0,1-8.23-8.08,17.27,17.27,0,0,1-2.53-12.15c0-.17.07-.37.1-.58a6.72,6.72,0,0,1,.54-2l0,.12c0,.32.07.65.13,1l0,.16a39.54,39.54,0,0,0,2.86,10.55,53.54,53.54,0,0,0,4.08,6.9q.31.47.63,1A19.59,19.59,0,0,0,76.93,126.58Z" transform="translate(-15.34 -20.31)"/><path class="cls-4" d="M66.75,104.11c0,.25.06.5.11.74l0,.16a39.57,39.57,0,0,0,2.87,10.59,54.38,54.38,0,0,0,4.09,6.91l.63.95A24.12,24.12,0,0,0,76.28,126a26.62,26.62,0,0,1-7.49-7.57,17.14,17.14,0,0,1-2.52-12.08c0-.17.07-.37.1-.58a9,9,0,0,1,.38-1.68m.13-.64a7.47,7.47,0,0,0-.81,2.86,17.46,17.46,0,0,0,2.55,12.23,29,29,0,0,0,9.81,9.08c-2-1.18-3.17-3.38-4.43-5.25a53.86,53.86,0,0,1-4.07-6.88c-1.63-3.43-2.23-7-2.88-10.69-.07-.45-.11-.9-.17-1.35Z" transform="translate(-15.34 -20.31)"/><path class="cls-3" d="M86,152.6c-.61-.09-1.23-.16-1.84-.22s-1.53-.17-2.24-.3a41.18,41.18,0,0,1-6.08-1.59l-.11,0c-1.67-.6-3.39-1.21-4.51-2.64a19.15,19.15,0,0,1-2.59-5.29c-.28-.76-.56-1.5-.86-2.2a55.14,55.14,0,0,1-2.67-7.83c.19.37.41.75.63,1.11s.4.67.56,1l.33.63c.62,1.17,1.19,2.19,1.74,3.11a31.3,31.3,0,0,0,4.65,6.21A36.39,36.39,0,0,0,86,152.6Z" transform="translate(-15.34 -20.31)"/><path class="cls-4" d="M65.44,133.24l.24.41c.21.34.4.67.56,1l.33.63c.62,1.17,1.19,2.19,1.74,3.11A31.51,31.51,0,0,0,73,144.6a36,36,0,0,0,12.22,7.79l-1-.11c-.76-.08-1.53-.17-2.24-.3a40.54,40.54,0,0,1-6.06-1.59l-.12,0c-1.65-.59-3.36-1.19-4.47-2.6a19.42,19.42,0,0,1-2.57-5.27c-.27-.74-.55-1.5-.85-2.2a54.37,54.37,0,0,1-2.47-7m-.75-2.11a55.89,55.89,0,0,0,3,9.22c1,2.46,1.79,5.42,3.46,7.53,1.17,1.48,2.94,2.08,4.67,2.7a40.1,40.1,0,0,0,6.09,1.59c1.86.36,4,.34,5.81.93a37.16,37.16,0,0,1-14.63-8.64,31.54,31.54,0,0,1-4.63-6.19c-.61-1-1.19-2.06-1.74-3.11l-.33-.63a17.56,17.56,0,0,1-1.73-3.4Z" transform="translate(-15.34 -20.31)"/><path class="cls-3" d="M89.4,177.07a1,1,0,0,1-.54-.43c-1.87-2.37-3.81-4.82-5.65-7.3-1-1.34-1.87-2.59-2.69-3.8-.17-.26-1.1-2-1.44-2.78A36.65,36.65,0,0,0,84.92,168a52.91,52.91,0,0,0,4.88,3.18c1.85,1.09,3.85,2.14,6.13,3.22l1.42.72a27.06,27.06,0,0,0,3,1.39,35.15,35.15,0,0,0-5-.42A15.76,15.76,0,0,0,90,177a1.34,1.34,0,0,1-.45.11Z" transform="translate(-15.34 -20.31)"/><path class="cls-4" d="M79.49,163.38a38,38,0,0,0,5.37,4.73,54.52,54.52,0,0,0,4.89,3.19c1.86,1.09,3.87,2.15,6.14,3.22.46.22.93.47,1.41.71.74.39,1.49.77,2.26,1.1a32.42,32.42,0,0,0-4.23-.31,15.73,15.73,0,0,0-5.42.86,1.36,1.36,0,0,1-.41.1h-.08a1,1,0,0,1-.49-.41c-1.87-2.37-3.81-4.82-5.64-7.29-1-1.34-1.87-2.59-2.69-3.79-.14-.21-.7-1.28-1.11-2.11m-.63-1a23.83,23.83,0,0,0,1.58,3.19c.87,1.29,1.77,2.55,2.69,3.8,1.83,2.48,3.74,4.89,5.65,7.3a1.15,1.15,0,0,0,.6.47h.12a1.73,1.73,0,0,0,.49-.11,15.4,15.4,0,0,1,5.34-.85,45.41,45.41,0,0,1,6.77.68c-2.12-.33-4.2-1.64-6.13-2.56s-4.13-2.05-6.12-3.21A57.27,57.27,0,0,1,85,168a38.46,38.46,0,0,1-6.06-5.49s0-.05-.06-.05Z" transform="translate(-15.34 -20.31)"/><path class="cls-2" d="M108.26,200.57q11.53,0,23.06-.23c2.19,0,4.39.26,6.57,0a69.46,69.46,0,0,0-45.43-15.64v.08c1.32,1.6,2.64,3.18,4,4.77l.53.63c.2.25.4.49.61.73a23,23,0,0,0,1.61,1.66c.7.66,3.81.51,4.74.64,3.1.43,6.71.41,9.55,1.89-3.7.64-7.4,0-11.11.11a3.44,3.44,0,0,1,1.11,1,14.55,14.55,0,0,0,2.16,1.9,36.35,36.35,0,0,0,2.77,2.36" transform="translate(-15.34 -20.31)"/><path class="cls-3" d="M121.93,198.53l-.84,0,.2-.08a4,4,0,0,0,1.79-1.23,2.2,2.2,0,0,0,.36-2.15,3.32,3.32,0,0,0-.57-.82l-.34-.4c-.23-.26-.46-.53-.67-.8l0,0,.62.3a66.27,66.27,0,0,1,7.27,4.13,5.69,5.69,0,0,1,1,.78l-.59,0c-.77,0-1.86.08-2.67.14-.47,0-.85.07-1,.07h-.13c-.72,0-1.45,0-2.19.06S122.67,198.53,121.93,198.53Z" transform="translate(-15.34 -20.31)"/><path class="cls-4" d="M122.19,193.28l.22.11a66.78,66.78,0,0,1,7.26,4.12,7,7,0,0,1,.8.58h-.32c-.77,0-1.87.08-2.68.14-.45,0-.85.07-1,.07h-.12c-.72,0-1.47,0-2.2.06s-1.49.07-2.22.07h-.35a3.92,3.92,0,0,0,1.58-1.16,2.31,2.31,0,0,0,.37-2.25,3.74,3.74,0,0,0-.58-.85l-.35-.4-.41-.48m-.44-.4c-.07,0-.08.07,0,.21.32.42.68.8,1,1.2a3.35,3.35,0,0,1,.55.8,2.12,2.12,0,0,1-.35,2,3.93,3.93,0,0,1-1.74,1.2,2.53,2.53,0,0,1-.93.22h-.14c.57,0,1.15.07,1.74.07,1.47,0,3-.12,4.42-.12h.13c.42,0,2.46-.21,3.67-.21.48,0,.83,0,.89.12a4.81,4.81,0,0,0-1.26-1.07,66.34,66.34,0,0,0-7.28-4.13l-.55-.27a.53.53,0,0,0-.2-.06Z" transform="translate(-15.34 -20.31)"/><path class="cls-7" d="M168.17,200.62a4.49,4.49,0,0,0,.73.06" transform="translate(-15.34 -20.31)"/><path class="cls-3" d="M170.07,197.53c.64-1.15.7-7.19.67-7.8a29.37,29.37,0,0,0-2.86-10.52l-.14-.24c-.1-.17-.42-.71-.37-.81l.13,0c.13,0,.35.37.49.57l.14.2c.22.27.43.54.64.82.42.57.82,1.17,1.19,1.78,3.19,5.33,3.55,11.27,3.49,15.87Z" transform="translate(-15.34 -20.31)"/><path class="cls-4" d="M167.49,178.29a3.17,3.17,0,0,1,.42.51l.15.21.63.81c.42.58.82,1.18,1.19,1.79,3.15,5.26,3.52,11.14,3.47,15.71l-1.07,0-2.05.06c.62-1.53.63-7.32.61-7.7A29.34,29.34,0,0,0,168,179.17l-.14-.25a5.25,5.25,0,0,1-.34-.63m-.1-.23c-.4,0,.29,1,.39,1.19a29.06,29.06,0,0,1,2.86,10.48c0,.74-.06,7.88-.85,7.91l3.76-.12c.08-5.77-.59-11.16-3.5-16-.37-.6-.77-1.2-1.2-1.79-.21-.28-.42-.56-.64-.82s-.46-.74-.68-.8l-.14,0Z" transform="translate(-15.34 -20.31)"/><path class="cls-2" d="M249.63,200.8a81.21,81.21,0,0,0-4.24-10,71.78,71.78,0,0,0-6-9.35c-1.24-1.65-2.55-3.25-3.93-4.78a73.11,73.11,0,0,0-5.94-5.87c-1.95-1.72-4-3.59-6.44-4.55-2.9-1.14-5.8-.51-8.56.76-5.32,2.43-10.65,5.39-14.68,9.78-4.75,5.17-6.25,11.89-5.31,18.84.21,1.55.52,3.08.78,4.61.12.67,1.87,1.84,2.33,2.27l3.18,2.92c-.11-.09,0-.85,0-1,0-.4,0-.79,0-1.18,0-.76,0-1.52,0-2.28,0-.53,0-.53.37-.55s1,0,1.44,0h47" transform="translate(-15.34 -20.31)"/><path class="cls-8" d="M200.78,205c0-.28,0-.56,0-.84v-3.67" transform="translate(-15.34 -20.31)"/><path class="cls-9" d="M201,200.56q15.38,0,30.74.18c5.54.07,11.1.16,16.63-.06" transform="translate(-15.34 -20.31)"/><path class="cls-3" d="M197.44,197.75c-.26,0-.42-.05-.49-.18-.65-1.21-.54-3.26-.46-4.76l0-.38a21.89,21.89,0,0,1,.89-5.19,28.65,28.65,0,0,1,4.7-9,2.15,2.15,0,0,1,.82-.72,25,25,0,0,0-3.79,12.06c0,.06-.15,6.87.92,8l-1.78.08-.3,0A4.55,4.55,0,0,1,197.44,197.75Z" transform="translate(-15.34 -20.31)"/><path class="cls-4" d="M202.62,177.79A25.08,25.08,0,0,0,199,189.54c0,.07-.14,6.41.83,8l-1.59.07-.32,0a4.21,4.21,0,0,1-.51,0c-.22,0-.35,0-.4-.12-.64-1.19-.53-3.23-.45-4.71l0-.38a21.73,21.73,0,0,1,.89-5.17,28.24,28.24,0,0,1,4.68-9,2.88,2.88,0,0,1,.44-.48m.52-.44a1.69,1.69,0,0,0-1.12.8,28.57,28.57,0,0,0-4.71,9.06,22.56,22.56,0,0,0-.9,5.22c-.07,1.48-.27,3.84.46,5.19.09.18.32.23.57.23s.63-.07.84-.08l2.15-.09h0c-1.25,0-1.23-7.3-1.19-8.13a24.79,24.79,0,0,1,3.91-12.2Z" transform="translate(-15.34 -20.31)"/><path class="cls-9" d="M237.93,200.69c3.6.09,7.64.31,11.17-.44-.24-1.7-1.82-3.82-2.62-5.37-1-1.86-1.93-3.7-2.94-5.53A111.06,111.06,0,0,0,237,178.73c-3.68-5.18-8.56-11-14.75-12.91" transform="translate(-15.34 -20.31)"/><path class="cls-6" d="M38,225" transform="translate(-15.34 -20.31)"/><line class="cls-10" x1="133.59" y1="179.85" x2="138.52" y2="179.85"/><line class="cls-10" x1="133.1" y1="180.2" x2="137.73" y2="180.2"/><path class="cls-6" d="M118.28,34.33" transform="translate(-15.34 -20.31)"/><text class="cls-11" transform="translate(32.15 10.82)">ConCoffee</text><text class="cls-12" transform="translate(0 23.48)"><tspan class="cls-13">C</tspan><tspan x="20.25" y="0">ON</tspan></text><text class="cls-14" transform="translate(20.32 58.67)">C<tspan class="cls-15" x="31.1" y="0">OFFEE</tspan></text></svg>